<svg width="947.6989501953125px" height="145.60000610351562px" xmlns="http://www.w3.org/2000/svg" viewBox="-223.84947509765624 2.1999969482421875 947.6989501953125 145.60000610351562" style="background: rgba(0, 0, 0, 0);" preserveAspectRatio="xMidYMid"><defs><linearGradient id="editing-gradient-gradient" x1="0" x2="1" y1="0.5" y2="0.5" gradientUnits="objectBoundingBox"><stop offset="0" stop-color="#f0f"></stop><stop offset="1" stop-color="#0ff"></stop></linearGradient></defs><g><g transform="translate(-95.55509567260742, 102.05999565124512)"><path d="M8.66 0L8.66-53.20L14.29-53.20L14.29 0L8.66 0ZM82.23-53.20L86.87-53.20L86.87 0L81.47 0L81.47-42.56L60.57-6.76L57.91-6.76L37.01-42.33L37.01 0L31.62 0L31.62-53.20L36.25-53.20L59.36-13.76L82.23-53.20ZM143.94 0L137.56-14.21L107.92-14.21L101.54 0L95.68 0L120.00-53.20L125.55-53.20L149.87 0L143.94 0ZM109.97-18.77L135.51-18.77L122.74-47.35L109.97-18.77ZM196.16-8.66L196.16-26.60L201.55-26.60L201.55-6.31L201.55-6.31Q197.83-3.04 192.74-1.29L192.74-1.29L192.74-1.29Q187.64 0.46 182.02 0.46L182.02 0.46L182.02 0.46Q174.04 0.46 167.66-3.04L167.66-3.04L167.66-3.04Q161.27-6.54 157.62-12.73L157.62-12.73L157.62-12.73Q153.98-18.92 153.98-26.60L153.98-26.60L153.98-26.60Q153.98-34.28 157.62-40.47L157.62-40.47L157.62-40.47Q161.27-46.66 167.66-50.16L167.66-50.16L167.66-50.16Q174.04-53.66 182.10-53.66L182.10-53.66L182.10-53.66Q188.18-53.66 193.27-51.72L193.27-51.72L193.27-51.72Q198.36-49.78 201.86-45.98L201.86-45.98L198.36-42.41L198.36-42.41Q192.05-48.64 182.32-48.64L182.32-48.64L182.32-48.64Q175.86-48.64 170.66-45.79L170.66-45.79L170.66-45.79Q165.45-42.94 162.49-37.89L162.49-37.89L162.49-37.89Q159.52-32.83 159.52-26.60L159.52-26.60L159.52-26.60Q159.52-20.37 162.49-15.35L162.49-15.35L162.49-15.35Q165.45-10.34 170.62-7.45L170.62-7.45L170.62-7.45Q175.79-4.56 182.25-4.56L182.25-4.56L182.25-4.56Q190.46-4.56 196.16-8.66L196.16-8.66ZM223.06-4.86L255.06-4.86L255.06 0L217.44 0L217.44-53.20L253.92-53.20L253.92-48.34L223.06-48.34L223.06-29.41L250.57-29.41L250.57-24.62L223.06-24.62L223.06-4.86ZM282.95 0.46L282.95 0.46Q277.02 0.46 271.59-1.44L271.59-1.44L271.59-1.44Q266.15-3.34 263.19-6.46L263.19-6.46L265.39-10.79L265.39-10.79Q268.28-7.90 273.07-6.12L273.07-6.12L273.07-6.12Q277.86-4.33 282.95-4.33L282.95-4.33L282.95-4.33Q290.09-4.33 293.66-6.95L293.66-6.95L293.66-6.95Q297.24-9.58 297.24-13.76L297.24-13.76L297.24-13.76Q297.24-16.95 295.30-18.85L295.30-18.85L295.30-18.85Q293.36-20.75 290.55-21.77L290.55-21.77L290.55-21.77Q287.74-22.80 282.72-24.02L282.72-24.02L282.72-24.02Q276.72-25.54 273.14-26.94L273.14-26.94L273.14-26.94Q269.57-28.35 267.03-31.24L267.03-31.24L267.03-31.24Q264.48-34.12 264.48-39.06L264.48-39.06L264.48-39.06Q264.48-43.09 266.61-46.40L266.61-46.40L266.61-46.40Q268.74-49.70 273.14-51.68L273.14-51.68L273.14-51.68Q277.55-53.66 284.09-53.66L284.09-53.66L284.09-53.66Q288.65-53.66 293.02-52.40L293.02-52.40L293.02-52.40Q297.39-51.15 300.58-48.94L300.58-48.94L298.68-44.46L298.68-44.46Q295.34-46.66 291.54-47.77L291.54-47.77L291.54-47.77Q287.74-48.87 284.09-48.87L284.09-48.87L284.09-48.87Q277.10-48.87 273.56-46.17L273.56-46.17L273.56-46.17Q270.03-43.47 270.03-39.22L270.03-39.22L270.03-39.22Q270.03-36.02 271.97-34.09L271.97-34.09L271.97-34.09Q273.90-32.15 276.83-31.12L276.83-31.12L276.83-31.12Q279.76-30.10 284.70-28.88L284.70-28.88L284.70-28.88Q290.55-27.44 294.16-26.03L294.16-26.03L294.16-26.03Q297.77-24.62 300.28-21.77L300.28-21.77L300.28-21.77Q302.78-18.92 302.78-14.06L302.78-14.06L302.78-14.06Q302.78-10.03 300.62-6.73L300.62-6.73L300.62-6.73Q298.45-3.42 293.97-1.48L293.97-1.48L293.97-1.48Q289.48 0.46 282.95 0.46L282.95 0.46ZM372.40-8.66L372.40-26.60L377.80-26.60L377.80-6.31L377.80-6.31Q374.07-3.04 368.98-1.29L368.98-1.29L368.98-1.29Q363.89 0.46 358.26 0.46L358.26 0.46L358.26 0.46Q350.28 0.46 343.90-3.04L343.90-3.04L343.90-3.04Q337.52-6.54 333.87-12.73L333.87-12.73L333.87-12.73Q330.22-18.92 330.22-26.60L330.22-26.60L330.22-26.60Q330.22-34.28 333.87-40.47L333.87-40.47L333.87-40.47Q337.52-46.66 343.90-50.16L343.90-50.16L343.90-50.16Q350.28-53.66 358.34-53.66L358.34-53.66L358.34-53.66Q364.42-53.66 369.51-51.72L369.51-51.72L369.51-51.72Q374.60-49.78 378.10-45.98L378.10-45.98L374.60-42.41L374.60-42.41Q368.30-48.64 358.57-48.64L358.57-48.64L358.57-48.64Q352.11-48.64 346.90-45.79L346.90-45.79L346.90-45.79Q341.70-42.94 338.73-37.89L338.73-37.89L338.73-37.89Q335.77-32.83 335.77-26.60L335.77-26.60L335.77-26.60Q335.77-20.37 338.73-15.35L338.73-15.35L338.73-15.35Q341.70-10.34 346.86-7.45L346.86-7.45L346.86-7.45Q352.03-4.56 358.49-4.56L358.49-4.56L358.49-4.56Q366.70-4.56 372.40-8.66L372.40-8.66ZM433.43 0L427.04-14.21L397.40-14.21L391.02 0L385.17 0L409.49-53.20L415.04-53.20L439.36 0L433.43 0ZM399.46-18.77L424.99-18.77L412.22-47.35L399.46-18.77ZM448.17 0L448.17-53.20L453.80-53.20L453.80-4.86L483.59-4.86L483.59 0L448.17 0ZM492.94 0L492.94-53.20L498.56-53.20L498.56-4.86L528.35-4.86L528.35 0L492.94 0ZM543.32-4.86L575.32-4.86L575.32 0L537.70 0L537.70-53.20L574.18-53.20L574.18-48.34L543.32-48.34L543.32-29.41L570.84-29.41L570.84-24.62L543.32-24.62L543.32-4.86ZM631.03 0L624.87 0L612.71-17.10L612.71-17.10Q610.66-16.87 608.46-16.87L608.46-16.87L594.17-16.87L594.17 0L588.54 0L588.54-53.20L608.46-53.20L608.46-53.20Q618.64-53.20 624.42-48.34L624.42-48.34L624.42-48.34Q630.19-43.47 630.19-34.96L630.19-34.96L630.19-34.96Q630.19-28.73 627.04-24.43L627.04-24.43L627.04-24.43Q623.88-20.14 618.03-18.24L618.03-18.24L631.03 0ZM608.30-21.66L608.30-21.66Q616.21-21.66 620.39-25.16L620.39-25.16L620.39-25.16Q624.57-28.65 624.57-34.96L624.57-34.96L624.57-34.96Q624.57-41.42 620.39-44.88L620.39-44.88L620.39-44.88Q616.21-48.34 608.30-48.34L608.30-48.34L594.17-48.34L594.17-21.66L608.30-21.66ZM683.01-53.20L661.73-18.39L661.73 0L656.18 0L656.18-18.39L634.90-53.20L640.91-53.20L659.15-23.33L677.39-53.20L683.01-53.20Z" fill="url(#editing-gradient-gradient)"></path></g></g><style>text {
  font-size: 64px;
  font-family: Arial Black;
  dominant-baseline: central;
  text-anchor: middle;
}</style></svg>